<?xml version="1.0" standalone="no"?>
<!DOCTYPE svg PUBLIC "-//W3C//DTD SVG 20010904//EN"
 "http://www.w3.org/TR/2001/REC-SVG-20010904/DTD/svg10.dtd">
<svg version="1.0" xmlns="http://www.w3.org/2000/svg"
 width="512.000000pt" height="512.000000pt" viewBox="0 0 512.000000 512.000000"
 preserveAspectRatio="xMidYMid meet">

<g transform="translate(0.000000,512.000000) scale(0.100000,-0.100000)"
fill="#fff" stroke="none">
<path d="M3520 3835 l-225 -225 365 -365 365 -365 -2013 0 -2012 0 0 -320 0
-320 2012 0 2013 0 -365 -365 -365 -365 228 -228 227 -227 655 655 c738 739
710 705 710 850 0 144 27 112 -708 848 -358 358 -654 652 -657 652 -3 0 -106
-101 -230 -225z"/>
</g>
</svg>
