<?xml version="1.0" standalone="no"?>
<!DOCTYPE svg PUBLIC "-//W3C//DTD SVG 20010904//EN"
 "http://www.w3.org/TR/2001/REC-SVG-20010904/DTD/svg10.dtd">
<svg version="1.0" xmlns="http://www.w3.org/2000/svg"
 width="512.000000pt" height="512.000000pt" viewBox="0 0 512.000000 512.000000"
 preserveAspectRatio="xMidYMid meet">

<g transform="translate(0.000000,512.000000) scale(0.100000,-0.100000)"
fill="#fff" stroke="none">
<path d="M713 3408 c-735 -736 -708 -704 -708 -848 0 -144 -27 -112 708 -847
358 -359 656 -653 662 -653 13 0 445 432 445 445 0 5 -163 173 -362 372 l-363
363 2013 0 2012 0 0 320 0 320 -2012 0 -2013 0 363 363 c199 199 362 367 362
372 0 13 -432 445 -445 445 -6 0 -304 -294 -662 -652z"/>
</g>
</svg>
